<svg width="23" height="34" viewBox="0 0 23 34" fill="none" xmlns="http://www.w3.org/2000/svg">
<g filter="url(#filter0_d_40427_5)">
<path d="M4.92435 1.0675C4.57284 1.41911 4.37537 1.89594 4.37537 2.39312C4.37537 2.89031 4.57284 3.36713 4.92435 3.71875L14.2056 13L4.92435 22.2812C4.5828 22.6349 4.39381 23.1085 4.39808 23.6001C4.40235 24.0917 4.59955 24.562 4.94719 24.9097C5.29483 25.2573 5.7651 25.4545 6.25672 25.4588C6.74834 25.463 7.22197 25.274 7.57559 24.9325L18.1825 14.3256C18.534 13.974 18.7314 13.4972 18.7314 13C18.7314 12.5028 18.534 12.026 18.1825 11.6744L7.57559 1.0675C7.22398 0.715991 6.74715 0.518524 6.24997 0.518524C5.75279 0.518524 5.27596 0.715991 4.92435 1.0675Z" fill="#F2785C"/>
</g>
<defs>
<filter id="filter0_d_40427_5" x="0.375366" y="0.518524" width="22.3561" height="32.9403" filterUnits="userSpaceOnUse" color-interpolation-filters="sRGB">
<feFlood flood-opacity="0" result="BackgroundImageFix"/>
<feColorMatrix in="SourceAlpha" type="matrix" values="0 0 0 0 0 0 0 0 0 0 0 0 0 0 0 0 0 0 127 0" result="hardAlpha"/>
<feOffset dy="4"/>
<feGaussianBlur stdDeviation="2"/>
<feComposite in2="hardAlpha" operator="out"/>
<feColorMatrix type="matrix" values="0 0 0 0 0 0 0 0 0 0 0 0 0 0 0 0 0 0 0.25 0"/>
<feBlend mode="normal" in2="BackgroundImageFix" result="effect1_dropShadow_40427_5"/>
<feBlend mode="normal" in="SourceGraphic" in2="effect1_dropShadow_40427_5" result="shape"/>
</filter>
</defs>
</svg>
